<svg width="108" height="20" viewBox="0 0 108 20" fill="none" xmlns="http://www.w3.org/2000/svg">
<path d="M11.9509 19.8078C13.8907 19.422 15.6725 18.4696 17.0711 17.0711L13.5355 13.5355C12.8363 14.2348 11.9454 14.711 10.9754 14.9039C10.0055 15.0968 9.00021 14.9978 8.08658 14.6194C7.17295 14.241 6.39206 13.6001 5.84265 12.7778C5.29324 11.9556 5 10.9889 5 10C5 9.01109 5.29324 8.0444 5.84265 7.22215C6.39206 6.39991 7.17295 5.75904 8.08658 5.3806C9.00021 5.00217 10.0055 4.90315 10.9754 5.09608C11.9454 5.289 12.8363 5.7652 13.5355 6.46447L17.0711 2.92894C15.6725 1.53041 13.8907 0.578004 11.9509 0.192151C10.0111 -0.1937 8.00042 0.00433229 6.17316 0.761208C4.3459 1.51808 2.78412 2.79981 1.6853 4.4443C0.58649 6.08879 0 8.02219 0 10C0 11.9778 0.58649 13.9112 1.6853 15.5557C2.78412 17.2002 4.34591 18.4819 6.17316 19.2388C8.00042 19.9957 10.0111 20.1937 11.9509 19.8078Z" fill="url(#paint0_linear_487_1025)"/>
<path fill-rule="evenodd" clip-rule="evenodd" d="M50 2.39689e-07H40V20H50C53.4518 20 56.25 17.2018 56.25 13.75C56.25 11.5949 55.1592 9.69462 53.4997 8.57099C54.4255 7.66351 55 6.39884 55 5C55 2.23858 52.7614 2.39689e-07 50 2.39689e-07ZM48.25 3.99963H45V7.49963H48.25C49.2165 7.49963 50 6.71613 50 5.74963C50 4.78313 49.2165 3.99963 48.25 3.99963ZM49 11.5002H45V16.0002H49C50.2426 16.0002 51.25 14.9929 51.25 13.7502C51.25 12.5076 50.2426 11.5002 49 11.5002Z" fill="url(#paint1_linear_487_1025)"/>
<path fill-rule="evenodd" clip-rule="evenodd" d="M57.5 20H62.5L63.8125 16.5H71.1875L72.5 20H77.5L70 2.39689e-07H65L57.5 20ZM69.6875 12.5L67.5 6.66667L65.3125 12.5H69.6875Z" fill="url(#paint2_linear_487_1025)"/>
<path d="M80 2.39689e-07H85V15H93.75V20L80 20L80 2.39689e-07Z" fill="url(#paint3_linear_487_1025)"/>
<path d="M107.5 5V2.39689e-07H92.5V5L97.5 5V20H102.5V5H107.5Z" fill="url(#paint4_linear_487_1025)"/>
<path fill-rule="evenodd" clip-rule="evenodd" d="M27.5 20C33.0228 20 37.5 15.5228 37.5 10C37.5 4.47715 33.0228 2.39689e-07 27.5 2.39689e-07C21.9771 2.39689e-07 17.5 4.47715 17.5 10C17.5 15.5228 21.9771 20 27.5 20ZM27.5 15C24.7386 15 22.5 12.7614 22.5 10C22.5 7.23858 24.7386 5 27.5 5C30.2614 5 32.5 7.23858 32.5 10C32.5 12.7614 30.2614 15 27.5 15Z" fill="url(#paint5_linear_487_1025)"/>
<defs>
<linearGradient id="paint0_linear_487_1025" x1="0" y1="0" x2="2.50678" y2="29.0577" gradientUnits="userSpaceOnUse">
<stop stop-color="#2886CA"/>
<stop offset="1" stop-color="#433CCA"/>
</linearGradient>
<linearGradient id="paint1_linear_487_1025" x1="0" y1="0" x2="2.50678" y2="29.0577" gradientUnits="userSpaceOnUse">
<stop stop-color="#2886CA"/>
<stop offset="1" stop-color="#433CCA"/>
</linearGradient>
<linearGradient id="paint2_linear_487_1025" x1="0" y1="0" x2="2.50678" y2="29.0577" gradientUnits="userSpaceOnUse">
<stop stop-color="#2886CA"/>
<stop offset="1" stop-color="#433CCA"/>
</linearGradient>
<linearGradient id="paint3_linear_487_1025" x1="0" y1="0" x2="2.50678" y2="29.0577" gradientUnits="userSpaceOnUse">
<stop stop-color="#2886CA"/>
<stop offset="1" stop-color="#433CCA"/>
</linearGradient>
<linearGradient id="paint4_linear_487_1025" x1="0" y1="0" x2="2.50678" y2="29.0577" gradientUnits="userSpaceOnUse">
<stop stop-color="#2886CA"/>
<stop offset="1" stop-color="#433CCA"/>
</linearGradient>
<linearGradient id="paint5_linear_487_1025" x1="0" y1="0" x2="2.50678" y2="29.0577" gradientUnits="userSpaceOnUse">
<stop stop-color="#2886CA"/>
<stop offset="1" stop-color="#433CCA"/>
</linearGradient>
</defs>
</svg>
