<svg width="42" height="40" viewBox="0 0 42 40" fill="none" xmlns="http://www.w3.org/2000/svg">
<path fill-rule="evenodd" clip-rule="evenodd" d="M0.998047 12.9585V22.0991H6.23242H11.4668L11.4649 23.7983C11.4638 24.7329 11.4282 25.6484 11.3856 25.8328C11.0945 27.0947 10.013 28.0875 8.72656 28.2734C8.45047 28.3133 7.33695 28.3467 6.25195 28.3476L4.2793 28.3491V32.2655V36.1819L6.87695 36.1401C8.76461 36.1097 9.65523 36.0644 10.1356 35.9744C14.6918 35.121 18.0166 31.9077 19.0606 27.349L19.2341 26.5913L19.259 15.2046L19.2838 3.81787H10.1409H0.998047V12.9585ZM22.7168 12.9585V22.0991H27.9512H33.1855L33.1837 23.7983C33.1826 24.7329 33.147 25.6484 33.1044 25.8328C32.8133 27.0947 31.7317 28.0875 30.4453 28.2734C30.1692 28.3133 29.0556 28.3467 27.9707 28.3476L25.998 28.3491V32.2655V36.1819L28.5957 36.1401C30.4834 36.1097 31.374 36.0644 31.8544 35.9744C36.4105 35.121 39.7354 31.9077 40.7794 27.349L40.9529 26.5913L40.9777 15.2046L41.0026 3.81787H31.8597H22.7168V12.9585Z" fill="url(#paint0_linear_487_1140)"/>
<defs>
<linearGradient id="paint0_linear_487_1140" x1="0.998047" y1="3.81787" x2="16.5763" y2="45.3451" gradientUnits="userSpaceOnUse">
<stop stop-color="#2886CA"/>
<stop offset="1" stop-color="#433CCA"/>
</linearGradient>
</defs>
</svg>
