<svg width="292" height="283" viewBox="0 0 292 283" fill="none" xmlns="http://www.w3.org/2000/svg">
<path fill-rule="evenodd" clip-rule="evenodd" d="M21.7191 0.583374C9.9095 0.583374 0.335938 10.1569 0.335938 21.9665V204.034C0.335938 215.843 9.90953 225.417 21.7191 225.417H137.285C149.095 225.417 158.669 215.843 158.669 204.034V21.9665C158.669 21.9163 158.668 21.8661 158.668 21.816V57.5834L101.669 0.583374H21.7191Z" fill="url(#paint0_linear_732_993)"/>
<path d="M101.67 0.583373L101.67 36.2002C101.67 48.0098 111.243 57.5834 123.053 57.5834L158.67 57.5834L101.67 0.583373Z" fill="white" fill-opacity="0.4"/>
<path d="M52.6295 144.667C50.5726 144.667 48.9173 143.619 48.2041 141.863C47.0149 138.943 48.7292 134.928 52.9075 130.845C56.1788 127.648 60.7473 125.017 66.4939 123.016C69.5503 117.34 72.3625 111.263 74.3351 106.068C69.9673 99.2693 69.1614 90.8765 70.689 86.187C71.6774 83.1539 73.3888 82.0131 74.6482 81.5903C76.406 80.9988 78.2003 81.4413 79.4513 82.7872C81.3368 84.8159 82.0276 88.9013 81.5657 95.2766C81.3817 97.8181 80.5379 101.231 79.0525 105.435C79.1171 105.517 79.1831 105.597 79.2491 105.677C80.2403 106.889 81.2975 108.223 82.4053 109.62C84.7696 112.603 87.4259 115.954 90.1272 118.957C90.926 118.932 91.6954 118.921 92.4381 118.921C101.982 118.921 108.392 120.919 110.485 124.546C111.378 126.093 111.396 127.833 110.537 129.323C109.377 131.333 106.868 132.533 103.824 132.533H103.823C103.086 132.533 102.324 132.461 101.558 132.319C97.7228 131.611 93.5122 128.723 88.3553 123.251C87.037 123.322 85.6569 123.426 84.2417 123.564C81.202 123.856 75.3362 124.622 69.3973 126.495C66.842 131.112 61.3426 140.439 57.2416 143.121C55.6902 144.133 54.0981 144.667 52.6295 144.667ZM63.106 128.954C60.1647 130.376 57.7372 132.017 55.8488 133.862C52.1381 137.489 51.8966 139.762 52.1044 140.272C52.1648 140.42 52.4245 140.451 52.6295 140.451C53.2585 140.451 54.0995 140.137 54.9348 139.592C56.7684 138.394 59.7954 134.417 63.106 128.954ZM94.2254 123.162C97.404 126.111 100.072 127.759 102.321 128.175C102.835 128.269 103.34 128.318 103.82 128.318C103.822 128.318 103.822 128.318 103.822 128.318C105.49 128.318 106.581 127.746 106.888 127.215C106.944 127.115 107.024 126.981 106.835 126.653C106.127 125.43 102.679 123.414 94.2254 123.162ZM77.3158 109.991C75.8458 113.608 74.0557 117.516 72.1098 121.361C76.9353 120.166 81.3101 119.612 83.8359 119.369C84.1644 119.338 84.4916 119.307 84.8159 119.279C82.8068 116.91 80.8749 114.474 79.1045 112.241C78.4923 111.468 77.8942 110.715 77.3158 109.991ZM76.1926 85.5464C76.1617 85.5464 76.0929 85.552 75.9876 85.5872C75.5131 85.7459 75.0287 86.4596 74.6917 87.4964C73.6809 90.5984 74.0824 95.8175 76.187 100.626C76.8567 98.3477 77.2568 96.4328 77.3621 94.9746C77.876 87.8813 76.7289 86.0508 76.3639 85.6602C76.2614 85.5464 76.2235 85.5464 76.1926 85.5464Z" fill="white"/>
<path fill-rule="evenodd" clip-rule="evenodd" d="M154.719 57.5834C142.91 57.5834 133.336 67.1569 133.336 78.9665V261.033C133.336 272.843 142.91 282.416 154.719 282.416H270.284C282.094 282.416 291.668 272.843 291.668 261.033V114.583L234.668 57.5834H154.719Z" fill="url(#paint1_linear_732_993)"/>
<path d="M234.668 57.5832L234.668 93.2001C234.668 105.01 244.242 114.583 256.051 114.583L291.668 114.583L234.668 57.5832Z" fill="white" fill-opacity="0.5"/>
<path d="M194.763 138.829L212.338 166.061H212.698L230.272 138.829H235.85L215.877 169.54L235.85 200.25H230.272L212.698 173.259H212.338L194.763 200.25H189.185L209.399 169.54L189.185 138.829H194.763Z" fill="white"/>
<defs>
<linearGradient id="paint0_linear_732_993" x1="0.335938" y1="0.583374" x2="212.021" y2="149.656" gradientUnits="userSpaceOnUse">
<stop stop-color="#FF815D"/>
<stop offset="1" stop-color="#B94CDB"/>
</linearGradient>
<linearGradient id="paint1_linear_732_993" x1="133.336" y1="57.5834" x2="257.263" y2="300.004" gradientUnits="userSpaceOnUse">
<stop stop-color="#5EE6B9"/>
<stop offset="1" stop-color="#2FBDB9"/>
</linearGradient>
</defs>
</svg>
