<svg width="32" height="32" viewBox="0 0 32 32" fill="none" xmlns="http://www.w3.org/2000/svg">
<path d="M21.3772 20.4657C20.0134 20.1882 19.1328 18.8577 19.4102 17.4939C19.6877 16.1301 21.0182 15.2494 22.382 15.5269C23.7459 15.8044 24.6265 17.1349 24.349 18.4987C24.0716 19.8625 22.741 20.7432 21.3772 20.4657Z" fill="url(#paint0_linear_473_998)"/>
<path fill-rule="evenodd" clip-rule="evenodd" d="M0 16C0 8.45753 0 4.68629 2.34315 2.34315C4.68629 0 8.45753 0 16 0C23.5425 0 27.3137 0 29.6569 2.34315C32 4.68629 32 8.45753 32 16C32 23.5425 32 27.3137 29.6569 29.6569C27.3137 32 23.5425 32 16 32C8.45753 32 4.68629 32 2.34315 29.6569C0 27.3137 0 23.5425 0 16ZM17.3945 21.9822C17.3729 22.0015 17.3511 22.0209 17.3288 22.0402C15.9997 23.1956 14.3265 23.8801 12.5687 23.9876C10.8109 24.0952 9.06678 23.6197 7.60678 22.6349C6.14678 21.6501 5.05253 20.2111 4.49373 18.541C3.93494 16.8709 3.94282 15.0632 4.51617 13.398C5.08952 11.7329 6.19629 10.3035 7.66483 9.33148C9.13336 8.35948 10.8816 7.89921 12.6384 8.02206C14.3952 8.1449 16.0623 8.844 17.3813 10.0109L14.7308 13.0067C14.0713 12.4233 13.2377 12.0737 12.3593 12.0123C11.481 11.9509 10.6068 12.181 9.87257 12.667C9.13831 13.153 8.58492 13.8677 8.29825 14.7003C8.01157 15.5329 8.00763 16.4368 8.28703 17.2718C8.56643 18.1068 9.11355 18.8263 9.84355 19.3187C10.5735 19.8111 11.4456 20.0489 12.3245 19.9951C13.2034 19.9414 14.04 19.5991 14.7046 19.0214C15.3691 18.4437 15.8245 17.6629 16.0001 16.8001C16.6607 13.5529 19.8287 11.4561 23.0758 12.1167C26.323 12.7774 28.4198 15.9453 27.7592 19.1925C27.0985 22.4397 23.9306 24.5365 20.6834 23.8758C19.3596 23.6065 18.227 22.9204 17.3945 21.9822Z" fill="url(#paint1_linear_473_998)"/>
<defs>
<linearGradient id="paint0_linear_473_998" x1="0" y1="0" x2="17.8753" y2="38.5496" gradientUnits="userSpaceOnUse">
<stop stop-color="#2886CA"/>
<stop offset="1" stop-color="#433CCA"/>
</linearGradient>
<linearGradient id="paint1_linear_473_998" x1="0" y1="0" x2="17.8753" y2="38.5496" gradientUnits="userSpaceOnUse">
<stop stop-color="#2886CA"/>
<stop offset="1" stop-color="#433CCA"/>
</linearGradient>
</defs>
</svg>
